<svg xmlns="http://www.w3.org/2000/svg" viewBox="0 0 1140 380" font-family="Inter, -apple-system, BlinkMacSystemFont, sans-serif">
  <!-- Background -->
  <rect width="1140" height="380" fill="#ffffff"/>

  <!-- Title -->
  <text x="570" y="24" text-anchor="middle" font-size="13" fill="#5a6270" font-style="italic">Posts CRUD with tags, search, pagination -- relational data</text>

  <!-- Columns: each 220px wide, starting at x=10 -->
  <!-- Codong -->
  <rect x="10" y="40" width="218" height="325" fill="#fafaff" stroke="#2c3e8f" stroke-width="2" rx="1"/>
  <rect x="178" y="40" width="50" height="16" fill="#2c3e8f"/>
  <text x="203" y="51" text-anchor="middle" font-size="8" fill="white" font-weight="700" letter-spacing="1">BEST</text>
  <circle cx="26" cy="72" r="3.5" fill="#1a6b4a"/>
  <text x="22" y="66" font-size="15" font-weight="700" fill="#2c3e8f">Codong</text>
  <text x="22" y="82" font-size="9.5" fill="#8b939e">AI-Native Challenger</text>
  <line x1="18" y1="92" x2="220" y2="92" stroke="#e2e5e9"/>
  <text x="22" y="114" font-size="12.5" fill="#5a6270">Total Tokens</text>
  <text x="214" y="114" text-anchor="end" font-size="15" font-weight="700" fill="#2c3e8f" font-family="JetBrains Mono, monospace">955</text>
  <text x="22" y="142" font-size="12.5" fill="#5a6270">Gen Time</text>
  <text x="214" y="142" text-anchor="end" font-size="15" font-weight="700" fill="#2c3e8f" font-family="JetBrains Mono, monospace">8,580<tspan font-size="9.5" fill="#8b939e">ms</tspan></text>
  <text x="22" y="170" font-size="12.5" fill="#5a6270">Code Lines</text>
  <text x="214" y="170" text-anchor="end" font-size="15" font-weight="700" fill="#2c3e8f" font-family="JetBrains Mono, monospace">10</text>
  <text x="22" y="198" font-size="12.5" fill="#5a6270">Est. Cost</text>
  <text x="214" y="198" text-anchor="end" font-size="15" font-weight="700" fill="#2c3e8f" font-family="JetBrains Mono, monospace">$0.0115</text>
  <line x1="18" y1="214" x2="220" y2="214" stroke="#e2e5e9"/>
  <text x="22" y="234" font-size="11.5" fill="#8b939e">Prompt In</text>
  <text x="214" y="234" text-anchor="end" font-size="12" fill="#8b939e" font-family="JetBrains Mono, monospace">233</text>
  <text x="22" y="256" font-size="11.5" fill="#8b939e">Output</text>
  <text x="214" y="256" text-anchor="end" font-size="12" fill="#8b939e" font-family="JetBrains Mono, monospace">722</text>
  <line x1="18" y1="270" x2="220" y2="270" stroke="#e2e5e9"/>
  <text x="22" y="290" font-size="11.5" fill="#8b939e">View Generated Code</text>

  <!-- Python -->
  <rect x="236" y="40" width="218" height="325" fill="white" stroke="#e2e5e9" rx="1"/>
  <circle cx="252" cy="72" r="3.5" fill="#1a6b4a"/>
  <text x="248" y="66" font-size="15" font-weight="700" fill="#4a6fa5">Python</text>
  <text x="248" y="82" font-size="9.5" fill="#8b939e">TOP #1 · TIOBE 25.87%</text>
  <line x1="244" y1="92" x2="446" y2="92" stroke="#e2e5e9"/>
  <text x="248" y="114" font-size="12.5" fill="#5a6270">Total Tokens</text>
  <text x="440" y="114" text-anchor="end" font-size="15" font-weight="600" fill="#1a1a2e" font-family="JetBrains Mono, monospace">1,867</text>
  <text x="248" y="142" font-size="12.5" fill="#5a6270">Gen Time</text>
  <text x="440" y="142" text-anchor="end" font-size="15" font-weight="600" fill="#1a1a2e" font-family="JetBrains Mono, monospace">15,273<tspan font-size="9.5" fill="#8b939e">ms</tspan></text>
  <text x="248" y="170" font-size="12.5" fill="#5a6270">Code Lines</text>
  <text x="440" y="170" text-anchor="end" font-size="15" font-weight="600" fill="#1a1a2e" font-family="JetBrains Mono, monospace">143</text>
  <text x="248" y="198" font-size="12.5" fill="#5a6270">Est. Cost</text>
  <text x="440" y="198" text-anchor="end" font-size="15" font-weight="600" fill="#1a1a2e" font-family="JetBrains Mono, monospace">$0.0248</text>
  <line x1="244" y1="214" x2="446" y2="214" stroke="#e2e5e9"/>
  <text x="248" y="234" font-size="11.5" fill="#8b939e">Prompt In</text>
  <text x="440" y="234" text-anchor="end" font-size="12" fill="#8b939e" font-family="JetBrains Mono, monospace">270</text>
  <text x="248" y="256" font-size="11.5" fill="#8b939e">Output</text>
  <text x="440" y="256" text-anchor="end" font-size="12" fill="#8b939e" font-family="JetBrains Mono, monospace">1,597</text>
  <line x1="244" y1="270" x2="446" y2="270" stroke="#e2e5e9"/>
  <text x="248" y="290" font-size="11.5" fill="#8b939e">View Generated Code</text>

  <!-- JavaScript -->
  <rect x="462" y="40" width="218" height="325" fill="white" stroke="#e2e5e9" rx="1"/>
  <circle cx="478" cy="72" r="3.5" fill="#1a6b4a"/>
  <text x="474" y="66" font-size="15" font-weight="700" fill="#7a8a5a">JavaScript</text>
  <text x="474" y="82" font-size="9.5" fill="#8b939e">TOP #2 · 38.5% developers</text>
  <line x1="470" y1="92" x2="672" y2="92" stroke="#e2e5e9"/>
  <text x="474" y="114" font-size="12.5" fill="#5a6270">Total Tokens</text>
  <text x="666" y="114" text-anchor="end" font-size="15" font-weight="600" fill="#1a1a2e" font-family="JetBrains Mono, monospace">1,710</text>
  <text x="474" y="142" font-size="12.5" fill="#5a6270">Gen Time</text>
  <text x="666" y="142" text-anchor="end" font-size="15" font-weight="600" fill="#1a1a2e" font-family="JetBrains Mono, monospace">13,737<tspan font-size="9.5" fill="#8b939e">ms</tspan></text>
  <text x="474" y="170" font-size="12.5" fill="#5a6270">Code Lines</text>
  <text x="666" y="170" text-anchor="end" font-size="15" font-weight="600" fill="#1a1a2e" font-family="JetBrains Mono, monospace">147</text>
  <text x="474" y="198" font-size="12.5" fill="#5a6270">Est. Cost</text>
  <text x="666" y="198" text-anchor="end" font-size="15" font-weight="600" fill="#1a1a2e" font-family="JetBrains Mono, monospace">$0.0224</text>
  <line x1="470" y1="214" x2="672" y2="214" stroke="#e2e5e9"/>
  <text x="474" y="234" font-size="11.5" fill="#8b939e">Prompt In</text>
  <text x="666" y="234" text-anchor="end" font-size="12" fill="#8b939e" font-family="JetBrains Mono, monospace">271</text>
  <text x="474" y="256" font-size="11.5" fill="#8b939e">Output</text>
  <text x="666" y="256" text-anchor="end" font-size="12" fill="#8b939e" font-family="JetBrains Mono, monospace">1,439</text>
  <line x1="470" y1="270" x2="672" y2="270" stroke="#e2e5e9"/>
  <text x="474" y="290" font-size="11.5" fill="#8b939e">View Generated Code</text>

  <!-- Java -->
  <rect x="688" y="40" width="218" height="325" fill="white" stroke="#e2e5e9" rx="1"/>
  <circle cx="704" cy="72" r="3.5" fill="#1a6b4a"/>
  <text x="700" y="66" font-size="15" font-weight="700" fill="#8a6a4a">Java</text>
  <text x="700" y="82" font-size="9.5" fill="#8b939e">TOP #3 · 50% enterprise AI</text>
  <line x1="696" y1="92" x2="898" y2="92" stroke="#e2e5e9"/>
  <text x="700" y="114" font-size="12.5" fill="#5a6270">Total Tokens</text>
  <text x="892" y="114" text-anchor="end" font-size="15" font-weight="600" fill="#1a1a2e" font-family="JetBrains Mono, monospace">4,367</text>
  <text x="700" y="142" font-size="12.5" fill="#5a6270">Gen Time</text>
  <text x="892" y="142" text-anchor="end" font-size="15" font-weight="600" fill="#1a1a2e" font-family="JetBrains Mono, monospace">37,398<tspan font-size="9.5" fill="#8b939e">ms</tspan></text>
  <text x="700" y="170" font-size="12.5" fill="#5a6270">Code Lines</text>
  <text x="892" y="170" text-anchor="end" font-size="15" font-weight="600" fill="#1a1a2e" font-family="JetBrains Mono, monospace">337</text>
  <text x="700" y="198" font-size="12.5" fill="#5a6270">Est. Cost</text>
  <text x="892" y="198" text-anchor="end" font-size="15" font-weight="600" fill="#1a1a2e" font-family="JetBrains Mono, monospace">$0.0623</text>
  <line x1="696" y1="214" x2="898" y2="214" stroke="#e2e5e9"/>
  <text x="700" y="234" font-size="11.5" fill="#8b939e">Prompt In</text>
  <text x="892" y="234" text-anchor="end" font-size="12" fill="#8b939e" font-family="JetBrains Mono, monospace">271</text>
  <text x="700" y="256" font-size="11.5" fill="#8b939e">Output</text>
  <text x="892" y="256" text-anchor="end" font-size="12" fill="#8b939e" font-family="JetBrains Mono, monospace">4,096</text>
  <line x1="696" y1="270" x2="898" y2="270" stroke="#e2e5e9"/>
  <text x="700" y="290" font-size="11.5" fill="#8b939e">View Generated Code</text>

  <!-- Go -->
  <rect x="914" y="40" width="218" height="325" fill="white" stroke="#e2e5e9" rx="1"/>
  <circle cx="930" cy="72" r="3.5" fill="#1a6b4a"/>
  <text x="926" y="66" font-size="15" font-weight="700" fill="#5a7a8a">Go</text>
  <text x="926" y="82" font-size="9.5" fill="#8b939e">TOP #5 · Cloud and AI infra</text>
  <line x1="922" y1="92" x2="1124" y2="92" stroke="#e2e5e9"/>
  <text x="926" y="114" font-size="12.5" fill="#5a6270">Total Tokens</text>
  <text x="1118" y="114" text-anchor="end" font-size="15" font-weight="600" fill="#1a1a2e" font-family="JetBrains Mono, monospace">3,270</text>
  <text x="926" y="142" font-size="12.5" fill="#5a6270">Gen Time</text>
  <text x="1118" y="142" text-anchor="end" font-size="15" font-weight="600" fill="#1a1a2e" font-family="JetBrains Mono, monospace">26,585<tspan font-size="9.5" fill="#8b939e">ms</tspan></text>
  <text x="926" y="170" font-size="12.5" fill="#5a6270">Code Lines</text>
  <text x="1118" y="170" text-anchor="end" font-size="15" font-weight="600" fill="#1a1a2e" font-family="JetBrains Mono, monospace">289</text>
  <text x="926" y="198" font-size="12.5" fill="#5a6270">Est. Cost</text>
  <text x="1118" y="198" text-anchor="end" font-size="15" font-weight="600" fill="#1a1a2e" font-family="JetBrains Mono, monospace">$0.0458</text>
  <line x1="922" y1="214" x2="1124" y2="214" stroke="#e2e5e9"/>
  <text x="926" y="234" font-size="11.5" fill="#8b939e">Prompt In</text>
  <text x="1118" y="234" text-anchor="end" font-size="12" fill="#8b939e" font-family="JetBrains Mono, monospace">269</text>
  <text x="926" y="256" font-size="11.5" fill="#8b939e">Output</text>
  <text x="1118" y="256" text-anchor="end" font-size="12" fill="#8b939e" font-family="JetBrains Mono, monospace">3,001</text>
  <line x1="922" y1="270" x2="1124" y2="270" stroke="#e2e5e9"/>
  <text x="926" y="290" font-size="11.5" fill="#8b939e">View Generated Code</text>

  <!-- Footer -->
  <text x="570" y="345" text-anchor="middle" font-size="11" fill="#5a6270">Claude Sonnet 4 -- Posts CRUD API with tags, search, pagination</text>
  <text x="570" y="362" text-anchor="middle" font-size="10.5" fill="#8b939e">Codong: 49% fewer tokens, 93% fewer lines than average. Run it yourself at codong.org/arena</text>
</svg>
